<?xml version="1.0" encoding="utf-8"?>
<svg version="1.1" xmlns="http://www.w3.org/2000/svg" xmlns:xlink="http://www.w3.org/1999/xlink" width="300px" height="300px" viewBox="0 0 300 300" xml:space="preserve">
<style type="text/css">
	.st0{fill:#010101;}
</style>
<path class="st0" d="M69.8,133.9c5.1-1.3,9.9-0.1,14.6,0.3c0.7,0,1.3,0.7,2,1c-0.5,0.6-0.9,1.3-1.5,1.7c-1.8,0.9-3.8,1.6-5.7,2.5
		c-3.8,1.8-7.9,2.5-12.1,2.6c-2.7,0-5.5-0.1-8.2,0.1c-0.7,0-1.6,0.4-2,1c-5.1,5.5-11,8.3-18.6,6.6c-2.5-0.6-5.1-0.9-7.6-1.5
		c-0.5-0.1-1.3-0.6-1.4-1c-0.1-0.4,0.3-1.2,0.7-1.5c3.6-3.5,8.1-4.3,12.9-4.5c1.9-0.1,3.9,0,5.8,0c-2.4-2.1-4.7-4-6.8-6.1
		c-1.7-1.7-3.3-3.6-4.7-5.6c-1-1.5-1.6-3.2-2.2-4.9c-0.2-0.5,0.1-1.5,0.5-1.7c0.4-0.2,1.4-0.1,1.8,0.3c2.6,2.1,5.4,3.8,8.6,4.7
		c3,0.9,5.4,3,7.6,5.3c0.4,0.5,0.9,0.9,1.1,1.1c-0.3-4-0.9-8.2-0.9-12.4c0-5.1,1.3-9.8,4.8-13.8c0.3-0.3,0.5-0.7,0.8-0.9
		c0.5-0.3,1.2-0.7,1.6-0.5c0.4,0.2,0.8,0.9,0.9,1.5c0.1,0.8,0,1.7,0.1,2.5c0.5,5.7,1,11.5,1.6,17.2c0.1,0,0.3,0,0.4,0
		c1-1.8,2-3.6,3-5.4c2.1-3.7,5.6-5.7,9.2-7.6c0.4-0.2,1.2-0.2,1.6,0.1c0.3,0.2,0.4,0.9,0.4,1.4c-0.4,2-0.9,3.9-1.3,5.9
		c-0.7,3.7-2.5,6.9-4.9,9.8C71,132.4,70.5,133,69.8,133.9z M60.3,138.6c0.3-2.6,1-5,0.8-7.4c-0.5-6.8-1.3-13.5-2-20.3
		C53.7,116.1,55.2,135.8,60.3,138.6z M63.4,136.2c8-6.1,10.9-11.6,11.1-18.1C68.9,119.8,64.6,130.3,63.4,136.2z M38.5,127.3
		c-0.1,0-0.2,0.1-0.3,0.1c2.7,2.9,5.3,5.9,8.1,8.7c1.1,1.1,2.6,1.8,4.1,2.5c1.4,0.6,3,1.1,4.7,0.1c-3.1-3.8-6.1-7.5-10.9-9.1
		C42.3,128.9,40.4,128,38.5,127.3z M33.3,145.6c9.2,3.3,18.4,1.5,20.9-3.8c-0.7,0.1-1.3,0.3-1.9,0.4c-1.7,0.3-3.4,0.8-5.1,1
		c-3.3,0.4-6.6,0.5-9.8,0.9C36,144.3,34.7,145.1,33.3,145.6z M80.2,136.1c-6-1.3-11.3-0.4-16.3,3.4
		C69.8,139.8,75.1,139.1,80.2,136.1z"/>
</svg>
