<?xml version="1.0" encoding="utf-8"?>
<svg version="1.1" xmlns="http://www.w3.org/2000/svg" xmlns:xlink="http://www.w3.org/1999/xlink" width="300px" height="300px" viewBox="0 0 300 300" xml:space="preserve">
<style type="text/css">
	.st0{fill:#010101;}
</style>
<path class="st0" d="M52.3,66.4c-0.1,0.7-0.2,1.4-0.1,2c0.1,1.7,0.6,3.6,1.1,5.3c1,3.6,3.2,5,6.8,4.8c0.3,0,0.7-0.1,1,0
		c0.4,0.2,1,0.6,1,0.8c-0.1,0.4-0.5,1.1-0.8,1.1c-2.8,0.2-4.7,1.5-6,4c-1.2,2.3-1.6,4.8-1.4,7.3c0.1,1.1,0.2,2.2,0,3.2
		c-0.1,0.6-0.7,1.5-1.1,1.5c-1,0.1-1.2-0.9-1.1-1.7c0.3-3-0.3-5.8-1.3-8.5c-0.9-2.5-2.3-3.4-5-3c-0.8,0.1-1.6,0.3-2.3,0.2
		c-0.5-0.1-1-0.5-1.5-0.8c0.3-0.4,0.6-1.1,1-1.2c4.9-1.6,6.3-5.6,7-10c0.4-2.6,0.4-5.2,0.6-7.8c0.1-2,1.2-1.6,1.9-0.2
		C52.4,64.3,52.4,65.4,52.3,66.4z"/>
</svg>
