<?xml version="1.0" encoding="utf-8"?>
<svg version="1.1" xmlns="http://www.w3.org/2000/svg" xmlns:xlink="http://www.w3.org/1999/xlink" width="300px" height="300px" viewBox="0 0 300 300" xml:space="preserve">
<style type="text/css">
	.st0{fill:#010101;}
</style>
<path class="st0" d="M203.2,241.8c0.1,2.8,0.2,5,0.4,7.2c0.1,1,0.4,1.9,0.7,2.8c0.8,2.1,2.3,3.2,4.6,2.9c0.2,0,0.4,0,0.6,0
		c0.8,0,1.5,0.2,1.5,1.1c0,1-0.8,1.3-1.6,1.2c-1.6-0.3-2.8,0.5-4,1.4c-1.7,1.3-2.4,3.1-2.7,5.1c-0.1,1.2-0.1,2.3-0.3,3.5
		c-0.1,0.4-0.5,0.8-0.8,1.2c-0.4-0.3-1-0.6-1.2-1c-0.2-0.5-0.1-1.1-0.2-1.7c-0.6-3.4-2-7.2-6.5-7.6c-0.4,0-0.9-0.1-1.2-0.4
		c-0.3-0.3-0.5-0.8-0.4-1.2c0-0.2,0.7-0.6,1-0.5c2.6,0.6,4.1-0.7,5.5-2.6c2.3-3,2.6-6.5,2.6-10.1c0-0.2-0.1-0.4,0-0.6
		c0.3-0.6,0.6-1.1,0.9-1.6C202.6,241.2,203.1,241.7,203.2,241.8z M201.1,260.6c1.2-1.5,2.5-3.1,3.6-4.6c-0.9-1.4-1.9-2.9-2.8-4.3
		c-1.3,1.6-2.6,3.4-3.9,5.1C198.9,258.1,200,259.4,201.1,260.6z"/>
</svg>
