<?xml version="1.0" encoding="utf-8"?>
<svg version="1.1" xmlns="http://www.w3.org/2000/svg" xmlns:xlink="http://www.w3.org/1999/xlink" width="300px" height="300px" viewBox="0 0 300 300" xml:space="preserve">
<style type="text/css">
	.st0{fill:#010101;}
</style>
<path class="st0" d="M86.7,226.2c-1.3-2-2.3-3.9-3.6-5.6c-0.4-0.6-1.4-0.8-2.1-1.2c-8.4-4.7-15.1-10.8-18-20.4
		c-1.6-5.4-2.9-10.9-5.8-15.9c-0.3-0.5,0.1-1.4,0.1-2.1c0.7,0.2,1.7,0.2,2.1,0.7c1.1,1.4,2.1,2.9,2.9,4.4c2,3.6,4.6,6.5,8.6,8.1
		c3.4,1.4,5.4,4.4,7,7.7c0.8,1.7,1.4,3.6,1.9,5.4c1.3,4.8,3.8,8.9,6.2,13.2c0.6-3.7,3.4-6.8,2.7-10.6c-0.5-3-1-6.1-2.1-8.9
		c-1.3-3.6-2.4-7-1.7-10.9c0.6-3.1,0.6-6.3,1.1-9.4c0.1-0.7,1-1.7,1.6-1.9c1.2-0.3,1.4,0.9,1.7,1.8c0.4,1.3,0.8,2.7,1.2,4
		c0.7,2.4,1.8,4.5,3.7,6.2c2,1.8,3.1,4.1,3.5,6.8c0.9,5.4,0.8,10.8-0.9,16c-0.7,2-2.1,3.8-3.1,5.7c-1.2,2.3-2.3,4.6-3.4,6.9
		c-0.2,0.4-0.1,1.1,0.1,1.3c2.5,2.9,5,5.8,7.8,8.4c-0.1-0.3-0.1-0.5-0.2-0.8c-2.1-4.6-1.2-9.1,0.7-13.5c1.8-4.1,3.5-8.3,2.7-13
		c-0.2-1.1-0.1-2.2,1.1-2.7c1.1-0.5,2.1,0,2.8,0.9c4.6,5.8,6.4,11,2.2,17.4c-2.4,3.6-3.7,7.7-4.6,11.9c-0.6,2.4,0.7,6.3,3.6,7.1
		c0.3,0.1,0.8,0.7,0.7,1c-0.1,0.4-0.5,1.1-0.8,1.1c-0.8,0-1.8-0.1-2.2-0.6c-1.2-1.3-2.8-1.6-4.4-1.9c-0.6-0.1-1.4,0.2-2,0.6
		c-1.9,1.1-3.7,2.5-5.8,3.4c-5.5,2.3-11.3,2.5-16.9,1c-4.3-1.1-8.4-2.6-12.8-3c-0.8-0.1-1.7-0.3-2.4-0.7c-0.5-0.3-1-1-0.9-1.5
		c0.1-0.5,0.8-1,1.3-1.2c0.4-0.2,1-0.1,1.5-0.1c5.5,0.3,10.8-0.8,15.7-3.1c6-2.8,11.8-2,17.7-0.1c0.6,0.2,1.2,0.5,2,0.5
		c-0.5-0.5-1-1-1.4-1.5c-2.2-2.4-4.5-4.9-6.7-7.4c-0.6-0.7-1.2-1-2.1-0.8c-0.6,0.1-1.1,0.3-1.6,0.5c-4.8,1.9-9.8,2.5-14.8,2
		c-2.3-0.3-4.8-1-6.8-2.3c-3.3-2.1-6.7-3.2-10.5-3.6c-5.3-0.6-9.6-3.2-13.3-6.8c-0.4-0.4-0.4-1.2-0.6-1.8c0.7-0.2,1.5-0.6,2.2-0.5
		c4,0.4,7.9,1.7,11.8,1.3c8.8-0.8,16.7,1.7,24.5,5C80.9,224.1,83.7,225.1,86.7,226.2z M88.3,222.9c0.2,0,0.3,0.1,0.5,0.1
		c1.1-1.7,2-3.5,3.2-5.1c2.5-3.2,3.7-6.8,3.9-10.8c0.1-2.2,0.2-4.5,0-6.7c-0.2-3.2-1.3-5.9-3.6-8.3c-1.5-1.5-2.4-3.6-3.4-5.4
		c-0.4-0.7-0.5-1.5-0.8-2.3c-0.2,0.2-0.3,0.3-0.3,0.4c0,0.7,0,1.4-0.1,2c-0.9,5.4,0,10.4,2,15.5c2,5.2,2.4,10.6-0.4,16
		C88.5,219.6,88.6,221.3,88.3,222.9z M83.8,227.6c-5-1.9-9.7-3.7-14.5-5.5c-3.8-1.4-7.7-2-11.7-1.9c-2.5,0.1-5.1,0.1-7.6,0.1
		c-1.5,0-3-0.3-4.8-0.4c2.9,2.2,5.9,3.1,9.2,3.5c3.7,0.4,7.3,1.4,10.4,3.6c2.5,1.7,5.3,2.5,8.4,2.4
		C76.6,229.2,80.2,229.3,83.8,227.6z M80.8,216.9c-1.5-4.2-2.9-8.3-4.3-12.4c-1.1-3.1-3-5.8-5.8-7.7c-2.2-1.5-4.7-2.7-6.8-3.8
		C65.4,203.6,71.6,211.4,80.8,216.9z M69.9,243.6c10.5,4.6,20.8,3.4,26.8-2.3c-0.8-0.3-1.6-0.7-2.5-0.9c-4-1.3-8.1-2.1-12.2-1
		C77.8,240.4,73.8,242.2,69.9,243.6z M101,235.3c0.9-5.3,3.1-9.6,5.5-13.9c1.5-2.6,1.7-5.4,0-8.1c-0.5-0.8-0.8-1.8-1.3-2.6
		c-0.2-0.5-0.6-0.8-1.1-1.6c0.3,5.5-1.4,10-3.4,14.5C99.1,227.3,98.6,231.1,101,235.3z"/>
</svg>
