<?xml version="1.0" encoding="utf-8"?>
<svg version="1.1" xmlns="http://www.w3.org/2000/svg" xmlns:xlink="http://www.w3.org/1999/xlink" width="300px" height="300px" viewBox="0 0 300 300" xml:space="preserve">
<style type="text/css">
	.st0{fill:#010101;}
</style>
<g>
	<path class="st0" d="M112.2,99.5C102,99.5,95.3,90,98.3,79.8c2.1-7.1,8.6-12.3,16-12.8c8.7-0.5,15.9,6.9,15.3,15.8
			c-0.5,8.2-6.5,14.9-14.5,16.4C114.1,99.5,113.2,99.5,112.2,99.5z M127.2,82c0.1-7.5-5.7-12.9-13.1-12.5
			c-8.2,0.5-14.7,8.2-14,16.5c0.6,6.8,6.5,11.7,13.2,11.2C120.9,96.6,127.2,89.8,127.2,82z"/>
	<path class="st0" d="M99.1,73c0.1,1.3-0.8,1.8-1.9,1.4c-1.3-0.5-2.6-1.2-4-1.8c-6-2.7-12-5.4-17.9-8.1c-0.2-0.1-0.5-0.2-0.7-0.3
			c-0.8-0.4-1.4-1-0.9-1.8c0.3-0.4,1.3-0.5,1.8-0.3c4.6,2,9.1,4,13.6,6.1c2.9,1.3,5.8,2.6,8.6,3.9C98.4,72.3,98.8,72.8,99.1,73z"/>
	<path class="st0" d="M152.4,107.6c-0.9,0.5-1.4,0.9-1.9,1c-0.4,0.1-0.9-0.3-1.2-0.5c-6.7-4-13.4-8.1-20.1-12.2
			c-0.8-0.5-1.7-1-1-2c0.7-1.1,1.5-0.4,2.3,0c6.6,4,13.3,8.1,19.9,12.1C151,106.3,151.5,106.8,152.4,107.6z"/>
	<path class="st0" d="M135.1,80.9c-0.3-0.2-0.8-0.7-1.3-1.1c0.5-0.5,0.9-1.2,1.4-1.3c7.3-1.3,14.6-2.5,21.8-3.7
			c0.8-0.1,1.7-0.1,1.8,1c0.1,1.1-0.8,1.3-1.6,1.4c-5.2,0.9-10.5,1.7-15.7,2.6C139.5,80.2,137.5,80.5,135.1,80.9z"/>
	<path class="st0" d="M115.6,103.5c0.2-0.2,0.7-1,1.1-0.9c0.5,0.1,1.2,0.7,1.3,1.2c0.9,4.6,1.7,9.2,2.5,13.7
			c0.5,2.7,0.9,5.4,1.4,8.1c0.1,0.8,0.2,1.6-0.8,1.9c-1,0.2-1.4-0.5-1.5-1.4c-1.3-7.2-2.5-14.4-3.8-21.6
			C115.6,104.3,115.6,104.1,115.6,103.5z"/>
	<path class="st0" d="M89,119.5c-1.4,0-1.8-1-1.1-2.1c0.8-1.3,1.6-2.5,2.4-3.8c2.9-4.6,5.9-9.1,8.8-13.7c0.2-0.3,0.4-0.8,0.7-1
			c0.5-0.3,1.1-0.4,1.6-0.5c0.1,0.6,0.5,1.3,0.3,1.7c-0.6,1.2-1.4,2.3-2.1,3.4c-3.2,4.9-6.3,9.8-9.5,14.7
			C89.7,118.8,89.2,119.2,89,119.5z"/>
	<path class="st0" d="M72.1,93.9c-0.2-0.2-0.7-0.6-1.1-1.1c0.5-0.4,0.9-1.2,1.4-1.3c6-1.1,12.1-2.1,18.2-3.1
			c0.8-0.1,1.7-0.4,2.4-0.3c0.5,0.1,1,0.6,1.5,0.9c-0.4,0.4-0.8,1.2-1.3,1.3c-2.6,0.5-5.2,0.9-7.8,1.3c-4,0.7-7.9,1.4-11.9,2
			C73.2,93.8,72.8,93.9,72.1,93.9z"/>
	<path class="st0" d="M111.6,64.1c-0.2,0.2-0.7,0.7-1.1,1.1c-0.5-0.5-1.2-0.9-1.3-1.4c-0.5-2.4-0.9-4.8-1.2-7.2
			c-0.7-4.3-1.4-8.6-2.1-12.8c-0.1-0.8-0.2-1.6,0.8-1.9c1-0.2,1.4,0.5,1.5,1.4c1.1,6.7,2.3,13.4,3.4,20.2
			C111.6,63.5,111.6,63.6,111.6,64.1z"/>
	<path class="st0" d="M127.6,69.8c-1,0-1.5-1-0.9-1.9c0.6-0.9,1.3-1.8,1.9-2.6c3.4-4.5,6.7-9,10.1-13.4c0.3-0.4,0.6-0.9,0.9-1
			c0.4-0.2,1-0.1,1.4,0.1c0.3,0.2,0.3,0.8,0.3,1.2c-0.1,0.4-0.4,0.7-0.6,1.1c-3.8,5.1-7.7,10.3-11.5,15.4c-0.4,0.5-0.6,1.2-0.9,1.8
			C128,70.2,127.8,70,127.6,69.8z"/>
	<path class="st0" d="M133,75.2c-0.3-0.2-0.8-0.4-0.9-0.7c-0.1-0.4,0-0.9,0.1-1.3c0.1-0.3,0.5-0.5,0.8-0.6
			c4.8-2.7,9.6-5.4,14.3-8.1c0,0,0.1,0,0.1-0.1c0.7-0.4,1.6-0.9,2.2,0.1c0.6,1-0.2,1.5-1,1.9c-1.7,1-3.4,1.9-5.1,2.9
			c-3.1,1.7-6.1,3.5-9.2,5.2C133.9,74.8,133.5,75,133,75.2z"/>
	<path class="st0" d="M133,85.9c4.3,0.9,8.3,1.7,12.2,2.5c1.4,0.3,2.8,0.4,4.1,0.9c0.6,0.2,0.9,1,1.4,1.5
			c-0.6,0.3-1.2,0.9-1.8,0.8c-5.3-1-10.6-2.1-15.8-3.3c-0.5-0.1-0.9-0.9-1.3-1.4C132.3,86.5,132.7,86.1,133,85.9z"/>
	<path class="st0" d="M93.2,53.8c0.5,0.4,0.9,0.7,1.2,1c3,3.9,6.1,7.9,9.1,11.8c0.5,0.7,1.1,1.5,0.1,2.1c-0.4,0.2-1.5-0.2-1.9-0.6
			c-3.1-3.9-6.2-7.9-9.2-11.9c-0.3-0.4-0.4-1.1-0.3-1.7C92.2,54.3,92.8,54.1,93.2,53.8z"/>
	<path class="st0" d="M81.7,105.6c-0.3-0.3-0.8-0.4-0.9-0.7c-0.1-0.3-0.1-0.8,0.1-1.1c0.2-0.3,0.6-0.6,0.9-0.8
			c4.1-2.7,8.3-5.5,12.4-8.2c0.7-0.5,1.5-0.8,2,0c0.5,0.8,0.1,1.4-0.6,1.9c-4.2,2.7-8.4,5.5-12.6,8.2
			C82.6,105.2,82.2,105.3,81.7,105.6z"/>
	<path class="st0" d="M133.4,114.2c-0.3,0.3-0.5,0.8-0.8,0.9c-0.4,0.1-1.1-0.1-1.3-0.4c-0.6-0.7-1-1.5-1.4-2.2
			c-2.1-3.5-4.2-7-6.2-10.5c-0.2-0.4-0.5-0.7-0.5-1.1c0-0.5,0.1-1.1,0.5-1.3c0.3-0.2,0.9,0,1.4,0.2c0.2,0.1,0.3,0.4,0.5,0.6
			c2.5,4.3,5,8.5,7.6,12.8C133.1,113.3,133.2,113.7,133.4,114.2z"/>
	<path class="st0" d="M118.9,64.6c0.4-1.5,0.6-2.6,0.9-3.8c0.9-3.7,1.8-7.4,2.7-11.2c0.2-0.8,0.5-1.7,1.6-1.5c1.1,0.3,1,1.2,0.8,2
			c-1.1,4.7-2.2,9.3-3.4,14c-0.1,0.5-0.8,1.1-1.4,1.3C119.8,65.6,119.3,64.9,118.9,64.6z"/>
	<path class="st0" d="M86.4,81.5c-2.6,0-5.2,0.1-7.7,0c-0.5,0-1.4-0.6-1.5-1c-0.2-1,0.7-1.2,1.6-1.2c5.1,0.1,10.2,0.2,15.3,0.4
			c0.5,0,0.9,0.8,1.4,1.2c-0.5,0.3-1,0.9-1.5,0.9c-2.5,0.1-5.1,0-7.6,0C86.4,81.7,86.4,81.6,86.4,81.5z"/>
	<path class="st0" d="M109.8,103.3c-0.4,1.7-0.8,3.2-1.1,4.6c-0.8,3.3-1.6,6.6-2.5,9.9c-0.2,0.8-0.5,1.8-1.6,1.5
			c-1.1-0.3-0.9-1.2-0.7-2.1c1.1-4.5,2.2-9,3.4-13.5c0.1-0.5,0.8-1.1,1.4-1.3C109,102.3,109.5,103,109.8,103.3z"/>
</g>
</svg>
