<?xml version="1.0" encoding="utf-8"?>
<svg version="1.1" xmlns="http://www.w3.org/2000/svg" xmlns:xlink="http://www.w3.org/1999/xlink" width="300px" height="300px" viewBox="0 0 300 300" xml:space="preserve">
<style type="text/css">
	.st0{fill:#010101;}
</style>
<g>
	<path class="st0" d="M128.6,158.4c-2.1-0.1-3.7-1.2-5.1-2.7c-2.4-2.5-3.6-2.6-6.1-0.3c-1,0.9-1.9,1.9-2.7,3
			c-3.7,4.5-8.2,4.9-12.6,1.1c-0.4-0.3-0.8-0.7-1.1-1.1c-3.1-2.9-5.4-3-8.7-0.4c-0.6,0.4-1.2,0.8-1.7,1.4c-2.6,3.1-5.9,2.6-9.2,1.7
			c-2.1-0.6-3.2-2.4-4-4.3c-0.1-0.3,0-0.9,0.2-1.1c0.3-0.2,0.9-0.2,1.3-0.1c0.3,0.1,0.6,0.5,0.7,0.8c0.9,2,2.4,2.7,4.5,3
			c2,0.3,3.3-0.3,4.8-1.5c1.8-1.5,3.8-3,5.9-3.8c2.7-1,5.2,0,7.3,2c0.8,0.8,1.6,1.6,2.5,2.3c2.6,2,5.4,1.7,7.7-0.9
			c1.4-1.5,2.7-3.2,4.3-4.4c3.1-2.5,5.6-2.2,8.3,0.7c3,3.2,6.3,2.9,8.6-0.9c0.4-0.7,0.8-1.5,1.3-2.1c0.3-0.3,1-0.5,1.3-0.3
			c0.3,0.1,0.6,0.8,0.6,1.2C136.1,155,131.9,158.4,128.6,158.4z"/>
	<path class="st0" d="M128.6,166c-2-0.3-4.3-0.4-6.3-2.1c-1.4-1.2-2.2-1-3.6,0.4c-1.2,1.2-2.3,2.6-3.7,3.4
			c-4.4,2.6-10.3,2-14.5-1.3c-3.6-2.8-4.7-2.7-8.3-0.1c-1.3,0.9-2.7,1.8-4.1,2.4c-0.9,0.3-2,0.1-3-0.1c-0.3,0-0.6-0.7-0.6-1.1
			c0.1-0.3,0.7-0.8,1-0.7c2,0.5,3.3-0.8,4.8-1.8c0.8-0.5,1.5-1.1,2.3-1.7c2.4-1.6,5.5-2.2,8.4,0.4c1.8,1.6,4,2.4,6.4,3
			c3.7,0.9,6.5-0.5,8.9-3.2c0.2-0.3,0.4-0.6,0.7-0.8c2.3-2.5,4.3-2.6,7.1-0.6c2.3,1.6,4.8,2.1,7.5,0.9c0.7-0.3,1.3-1,2-1.4
			c0.5-0.2,1.2-0.2,1.8-0.2c-0.1,0.6,0.1,1.4-0.2,1.8C134,164.8,131.1,166,128.6,166z"/>
</g>
</svg>
