<?xml version="1.0" encoding="utf-8"?>
<!-- Generator: Adobe Illustrator 26.3.1, SVG Export Plug-In . SVG Version: 6.00 Build 0)  -->
<svg version="1.1" id="Layer_1" xmlns="http://www.w3.org/2000/svg" xmlns:xlink="http://www.w3.org/1999/xlink" x="0px" y="0px"
	 width="300px" height="300px" viewBox="0 0 300 300" style="enable-background:new 0 0 300 300;" xml:space="preserve">
<style type="text/css">
	.st0{fill:#010101;}
</style>
<g>
	<path class="st0" d="M202.2,217.1c-0.7-3.6-1.5-7.3-2.2-10.8c-1.4,0.2-2.7,0.4-3.9,0.5c-2.7,0.4-5.2-0.4-7.6-1.6
		c-2.6-1.3-5.1-1.4-8,0c-4.7,2.3-9.8,1.7-14.4-0.5c-5.7-2.7-10.6-6.7-15-11.2c-0.4-0.4-0.4-1.2-0.5-1.8c0.6-0.2,1.4-0.6,1.9-0.4
		c6.2,2.4,12.8,2.5,19.3,3c2.7,0.2,5.4-0.3,8.1-0.2c1.7,0.1,3.4,0.5,5,1.1c4.8,1.7,9.8,3.1,14,6.7c0-0.6,0.1-0.8,0.1-1
		c-1.2-4.9-2.5-9.7-3.7-14.6c-0.2-1-0.7-1.2-1.7-1.3c-2.2-0.2-4.3-0.7-6.5-0.8c-3.6-0.3-7.1,0.8-10.4,2c-3.2,1.1-6.4,1.1-9.6,0
		c-4.8-1.6-9.5-3.2-14.2-4.9c-2.4-0.8-4.3-2.3-5.6-4.5c-0.4-0.6-0.5-1.8-0.1-2.2c0.3-0.4,1.6-0.5,2.2-0.3c5,2.1,10.2,1.8,15.3,1.5
		c1.9-0.1,3.9-0.5,5.8-1c4.5-1.4,8.6-0.1,12.6,1.8c1.3,0.6,2.8,0.8,4.1,1.4c1.5,0.7,2.9,1.5,4.4,2.3c0.7,0.4,1.3,0.8,2,1.1
		c-1.9-4.1-3.4-8.3-6.5-11.7c-0.8-0.9-1.6-0.8-2.5-0.6c-2.2,0.5-4.4,1.2-6.7,1.4c-1.9,0.2-3.9,0.2-5.9,0c-3.4-0.4-6.7-1.1-10.1-1.5
		c-6.8-0.7-11.6-4.4-15.4-9.7c-1.3-1.8-2.3-3.8-3.3-5.8c-0.2-0.5,0-1.2,0.1-1.8c0.6,0.1,1.6,0,1.9,0.4c3.4,4.1,8.1,4.9,13,5.3
		c3.7,0.3,7.4,0.7,10.6,2.9c1.1,0.7,2.6,1,4,1.1c4.1,0.2,7.9,1.3,10.9,4.2c0.2,0.2,0.5,0.3,1.2,0.7c-0.4-0.7-0.6-1-0.8-1.2
		c-3.7-3.8-7.4-7.6-11.1-11.3c-0.3-0.3-0.7-0.5-1.1-0.6c-5-1.6-9.2-4.4-13.2-7.7c-4.8-3.9-7-9.4-8.9-15c-0.4-1.2-0.9-2.4-1.1-3.7
		c-0.1-0.6,0.3-1.3,0.5-1.9c0.6,0.3,1.5,0.4,1.7,0.9c2.7,5.4,6.9,9.1,12.3,11.6c1.8,0.9,3.5,2,5.2,3.1c3.9,2.7,6.1,6.4,6.5,11.1
		c0,0.4,0.3,0.9,0.6,1.2c1.8,1.9,3.6,3.7,5.7,5.7c-0.4-2.3-0.9-4.3-1-6.3c-0.4-9.5-4.2-17.6-9.5-25.2c-0.5-0.7-1.1-1.6-0.2-2.3
		c1-0.7,1.5,0.1,2.2,0.8c1.8,1.7,3.5,3.4,5.4,4.9c7.7,5.9,11.1,13.9,11.2,23.3c0,2.8-0.4,5.7-0.6,8.5c-0.2,2.7-0.3,5.4,1.6,7.7
		c0.8,1,1.4,2.3,2.4,3.4c0-1.1-0.2-2.2,0-3.3c0.5-2.7,1-5.5,1.8-8.2c0.8-2.9,0.7-5.7-0.2-8.6c-0.9-2.8-1.7-5.6-2.5-8.5
		c-0.6-2.3-0.2-4.7,0.7-6.8c0.8-1.8,1.7-3.6,2.7-5.3c0.3-0.5,1-1.1,1.5-1c0.5,0,1.2,0.7,1.4,1.2c1.8,6.2,3.8,12.4,5.1,18.7
		c1.4,6.9,0.3,13.7-2.7,20.1c-1.4,3-2.6,6.2-3.8,9.3c-0.1,0.3-0.3,0.6-0.3,0.9c0.9,2.8,1.8,5.6,2.6,7.9c0.9-3.3,1.7-7,2.9-10.6
		c0.6-1.7,1.7-3.3,2.6-4.9c3.2-5.5,5.3-11.5,5-17.9c-0.3-4.8,1-9.1,2.6-13.4c0.3-0.9,0.7-2,1.9-1.7c0.7,0.2,1.3,1.1,1.6,1.8
		c1.9,5.1,1.6,10.3,0.2,15.4c-0.7,2.8-0.6,5.5,0,8.3c1.3,5.4,0.1,10.4-3.1,15c-2.4,3.3-4.9,6.4-8,9.1c-3.1,2.7-4.1,6.3-3.2,10.3
		c0.4,1.7,0.7,3.4,1.1,5.3c4-5.1,8.1-10,11.8-15.2c1.5-2,2.3-4.6,3.1-7.1c2.1-5.7,4-11.6,6-17.3c0.2-0.6,0.9-1.1,1.4-1.3
		c0.2-0.1,1.1,0.7,1.2,1.1c0.5,5.5,1.3,10.9,1.2,16.4c-0.1,6-3.6,10.7-7.2,15.2c-2,2.5-4,4.9-6,7.4c-0.7,0.8-1.5,1.6-2.2,2.4
		c-2.1,2.4-4.2,4.8-6.3,7.3c-1,1.1-1.1,2.4-0.6,3.8c0.7,1.7,1.3,3.4,1.9,5.1c0.2,0.5,0.4,1,0.3,1.5c-0.1,0.5-0.6,0.9-0.9,1.4
		c-0.4-0.3-1-0.7-1.1-1.1c-0.8-5.2-4.3-5.2-7.9-5.2c-2.9,0-5.8,1.1-8.6,1c-7.1-0.2-14.2,0.9-21.2-0.9c-4.2-1.1-6.9-3.7-8.9-7.2
		c-0.3-0.4-0.3-1.4,0-1.7c0.4-0.4,1.2-0.5,1.8-0.5c3.4,0.4,6.9,1,10.3,1.5c4.1,0.6,8.1,0.1,12-1c7.1-2,13.1,0.3,18.6,4.6
		c0.2,0.1,0.3,0.3,0.5,0.4C201.9,217.1,201.9,217.1,202.2,217.1z M156.3,195.6c3.2,2.1,6.3,4.4,9.6,6.2c4.8,2.7,9.9,3.1,15,0.6
		c1.6-0.8,3.4-1.1,5.1-0.5c1.7,0.6,3.4,1.2,5,2c2.3,1.1,4.6,0.9,7.2,0.5c-0.5-0.3-0.7-0.5-0.8-0.6c-4.4-3.2-9.4-5-14.5-6.5
		c-2-0.6-4.3-1-6.4-0.8C169.8,197.2,163.3,195.7,156.3,195.6z M223.8,172.3c-1,3.1-2.3,6.1-3.1,9.2c-2,8.4-6.5,15.1-12.4,21.1
		c-1.1,1.1-2.1,2.4-3,3.7c-1.2,1.9-1.3,3.9-0.9,6.3c1.1-1.3,1.9-2.5,2.9-3.5c4.6-4.2,8.3-9.3,12.1-14.1c1.7-2.2,3.1-4.8,4.3-7.3
		C226,182.7,224.8,177.5,223.8,172.3z M213.3,145.9c-0.2,0.7-0.5,1.5-0.7,2.2c-1.2,3.2-0.6,6.5-0.9,9.8c-0.4,6.7-2.3,13-6.1,18.7
		c-2.7,4.1-4,8.8-4.1,13.7c3.7-2.8,6.6-6.3,9.2-10.2c2.6-3.9,3.7-8.1,2.5-12.7c-0.8-3.2-0.9-6.3,0-9.5c0.3-1,0.5-2.1,0.7-3.2
		C214.6,151.8,214.5,148.8,213.3,145.9z M188.8,182.1c0-0.2,0.1-0.4,0.1-0.6c-1.1-0.4-2.1-0.9-3.2-1.3c-1.3-0.5-2.7-0.7-3.9-1.4
		c-3.7-1.8-7.4-3-11.7-1.6c-2,0.7-4.3,0.9-6.4,1c-4.1,0.1-8.3-0.1-12.4-0.2c0.5,0.3,1.2,0.8,1.9,1c5,1.7,10,3.4,15,5.1
		c2.2,0.8,4.4,0.7,6.7,0c2.6-0.8,5.3-1.6,8-2C184.9,181.9,186.9,182.1,188.8,182.1z M181.6,167.4c-2-2.2-4.3-3.1-6.9-3.4
		c-3.5-0.3-6.9-0.7-9.8-2.9c-0.7-0.5-1.8-0.7-2.8-0.8c-2.3-0.3-4.6-0.4-6.9-0.8c-2.4-0.4-4.8-1.1-7.1-1.7c2.4,4.2,7.1,7.7,11.9,8.6
		c3.6,0.7,7.3,0.9,10.8,1.7C174.5,169,177.9,168.3,181.6,167.4z M196.3,136.3c-2.3,2.7-3.1,5.7-2.2,9c0.6,2.3,1.3,4.5,2,6.7
		c1.3,3.8,1.3,7.5,0.1,11.4c-0.9,3-1.3,6.3-1.7,9.4c-0.2,1.1,0.2,2.3,0.3,3.5c1.4-2.2,2.5-4.3,3.5-6.4c2.5-5.5,3.4-11.3,2.3-17.1
		C199.7,147.2,197.8,141.8,196.3,136.3z M162.3,214.1c-0.1,0.1-0.1,0.3-0.2,0.4c0.3,0.4,0.7,0.8,1,1.2c2.8,3,6.6,3.5,10.3,3.7
		c8.7,0.4,17.4,0.4,26.3-1.2c-0.8-0.6-1.5-1.2-2.3-1.7c-4.8-2.4-9.6-3.9-15-2c-4.2,1.5-8.6,1.3-12.9,0.7
		C167,215,164.7,214.5,162.3,214.1z M185.7,162.8c3.5-9.1-1.7-26.6-8.5-29.4c1,2.5,2.4,5,3,7.6c0.9,3.9,1.4,7.9,1.9,11.9
		C182.5,156.4,183.7,159.7,185.7,162.8z M171.9,150.8c-0.5-3.5-2.1-6.2-4.9-8.1c-4.4-2.9-9-5.6-13.3-8.2
		C155.3,140.7,165.4,150,171.9,150.8z"/>
	<path class="st0" d="M86.7,226.2c-1.3-2-2.3-3.9-3.6-5.6c-0.4-0.6-1.4-0.8-2.1-1.2c-8.4-4.7-15.1-10.8-18-20.4
		c-1.6-5.4-2.9-10.9-5.8-15.9c-0.3-0.5,0.1-1.4,0.1-2.1c0.7,0.2,1.7,0.2,2.1,0.7c1.1,1.4,2.1,2.9,2.9,4.4c2,3.6,4.6,6.5,8.6,8.1
		c3.4,1.4,5.4,4.4,7,7.7c0.8,1.7,1.4,3.6,1.9,5.4c1.3,4.8,3.8,8.9,6.2,13.2c0.6-3.7,3.4-6.8,2.7-10.6c-0.5-3-1-6.1-2.1-8.9
		c-1.3-3.6-2.4-7-1.7-10.9c0.6-3.1,0.6-6.3,1.1-9.4c0.1-0.7,1-1.7,1.6-1.9c1.2-0.3,1.4,0.9,1.7,1.8c0.4,1.3,0.8,2.7,1.2,4
		c0.7,2.4,1.8,4.5,3.7,6.2c2,1.8,3.1,4.1,3.5,6.8c0.9,5.4,0.8,10.8-0.9,16c-0.7,2-2.1,3.8-3.1,5.7c-1.2,2.3-2.3,4.6-3.4,6.9
		c-0.2,0.4-0.1,1.1,0.1,1.3c2.5,2.9,5,5.8,7.8,8.4c-0.1-0.3-0.1-0.5-0.2-0.8c-2.1-4.6-1.2-9.1,0.7-13.5c1.8-4.1,3.5-8.3,2.7-13
		c-0.2-1.1-0.1-2.2,1.1-2.7c1.1-0.5,2.1,0,2.8,0.9c4.6,5.8,6.4,11,2.2,17.4c-2.4,3.6-3.7,7.7-4.6,11.9c-0.6,2.4,0.7,6.3,3.6,7.1
		c0.3,0.1,0.8,0.7,0.7,1c-0.1,0.4-0.5,1.1-0.8,1.1c-0.8,0-1.8-0.1-2.2-0.6c-1.2-1.3-2.8-1.6-4.4-1.9c-0.6-0.1-1.4,0.2-2,0.6
		c-1.9,1.1-3.7,2.5-5.8,3.4c-5.5,2.3-11.3,2.5-16.9,1c-4.3-1.1-8.4-2.6-12.8-3c-0.8-0.1-1.7-0.3-2.4-0.7c-0.5-0.3-1-1-0.9-1.5
		c0.1-0.5,0.8-1,1.3-1.2c0.4-0.2,1-0.1,1.5-0.1c5.5,0.3,10.8-0.8,15.7-3.1c6-2.8,11.8-2,17.7-0.1c0.6,0.2,1.2,0.5,2,0.5
		c-0.5-0.5-1-1-1.4-1.5c-2.2-2.4-4.5-4.9-6.7-7.4c-0.6-0.7-1.2-1-2.1-0.8c-0.6,0.1-1.1,0.3-1.6,0.5c-4.8,1.9-9.8,2.5-14.8,2
		c-2.3-0.3-4.8-1-6.8-2.3c-3.3-2.1-6.7-3.2-10.5-3.6c-5.3-0.6-9.6-3.2-13.3-6.8c-0.4-0.4-0.4-1.2-0.6-1.8c0.7-0.2,1.5-0.6,2.2-0.5
		c4,0.4,7.9,1.7,11.8,1.3c8.8-0.8,16.7,1.7,24.5,5C80.9,224.1,83.7,225.1,86.7,226.2z M88.3,222.9c0.2,0,0.3,0.1,0.5,0.1
		c1.1-1.7,2-3.5,3.2-5.1c2.5-3.2,3.7-6.8,3.9-10.8c0.1-2.2,0.2-4.5,0-6.7c-0.2-3.2-1.3-5.9-3.6-8.3c-1.5-1.5-2.4-3.6-3.4-5.4
		c-0.4-0.7-0.5-1.5-0.8-2.3c-0.2,0.2-0.3,0.3-0.3,0.4c0,0.7,0,1.4-0.1,2c-0.9,5.4,0,10.4,2,15.5c2,5.2,2.4,10.6-0.4,16
		C88.5,219.6,88.6,221.3,88.3,222.9z M83.8,227.6c-5-1.9-9.7-3.7-14.5-5.5c-3.8-1.4-7.7-2-11.7-1.9c-2.5,0.1-5.1,0.1-7.6,0.1
		c-1.5,0-3-0.3-4.8-0.4c2.9,2.2,5.9,3.1,9.2,3.5c3.7,0.4,7.3,1.4,10.4,3.6c2.5,1.7,5.3,2.5,8.4,2.4
		C76.6,229.2,80.2,229.3,83.8,227.6z M80.8,216.9c-1.5-4.2-2.9-8.3-4.3-12.4c-1.1-3.1-3-5.8-5.8-7.7c-2.2-1.5-4.7-2.7-6.8-3.8
		C65.4,203.6,71.6,211.4,80.8,216.9z M69.9,243.6c10.5,4.6,20.8,3.4,26.8-2.3c-0.8-0.3-1.6-0.7-2.5-0.9c-4-1.3-8.1-2.1-12.2-1
		C77.8,240.4,73.8,242.2,69.9,243.6z M101,235.3c0.9-5.3,3.1-9.6,5.5-13.9c1.5-2.6,1.7-5.4,0-8.1c-0.5-0.8-0.8-1.8-1.3-2.6
		c-0.2-0.5-0.6-0.8-1.1-1.6c0.3,5.5-1.4,10-3.4,14.5C99.1,227.3,98.6,231.1,101,235.3z"/>
	<path class="st0" d="M69.8,133.9c5.1-1.3,9.9-0.1,14.6,0.3c0.7,0,1.3,0.7,2,1c-0.5,0.6-0.9,1.3-1.5,1.7c-1.8,0.9-3.8,1.6-5.7,2.5
		c-3.8,1.8-7.9,2.5-12.1,2.6c-2.7,0-5.5-0.1-8.2,0.1c-0.7,0-1.6,0.4-2,1c-5.1,5.5-11,8.3-18.6,6.6c-2.5-0.6-5.1-0.9-7.6-1.5
		c-0.5-0.1-1.3-0.6-1.4-1c-0.1-0.4,0.3-1.2,0.7-1.5c3.6-3.5,8.1-4.3,12.9-4.5c1.9-0.1,3.9,0,5.8,0c-2.4-2.1-4.7-4-6.8-6.1
		c-1.7-1.7-3.3-3.6-4.7-5.6c-1-1.5-1.6-3.2-2.2-4.9c-0.2-0.5,0.1-1.5,0.5-1.7c0.4-0.2,1.4-0.1,1.8,0.3c2.6,2.1,5.4,3.8,8.6,4.7
		c3,0.9,5.4,3,7.6,5.3c0.4,0.5,0.9,0.9,1.1,1.1c-0.3-4-0.9-8.2-0.9-12.4c0-5.1,1.3-9.8,4.8-13.8c0.3-0.3,0.5-0.7,0.8-0.9
		c0.5-0.3,1.2-0.7,1.6-0.5c0.4,0.2,0.8,0.9,0.9,1.5c0.1,0.8,0,1.7,0.1,2.5c0.5,5.7,1,11.5,1.6,17.2c0.1,0,0.3,0,0.4,0
		c1-1.8,2-3.6,3-5.4c2.1-3.7,5.6-5.7,9.2-7.6c0.4-0.2,1.2-0.2,1.6,0.1c0.3,0.2,0.4,0.9,0.4,1.4c-0.4,2-0.9,3.9-1.3,5.9
		c-0.7,3.7-2.5,6.9-4.9,9.8C71,132.4,70.5,133,69.8,133.9z M60.3,138.6c0.3-2.6,1-5,0.8-7.4c-0.5-6.8-1.3-13.5-2-20.3
		C53.7,116.1,55.2,135.8,60.3,138.6z M63.4,136.2c8-6.1,10.9-11.6,11.1-18.1C68.9,119.8,64.6,130.3,63.4,136.2z M38.5,127.3
		c-0.1,0-0.2,0.1-0.3,0.1c2.7,2.9,5.3,5.9,8.1,8.7c1.1,1.1,2.6,1.8,4.1,2.5c1.4,0.6,3,1.1,4.7,0.1c-3.1-3.8-6.1-7.5-10.9-9.1
		C42.3,128.9,40.4,128,38.5,127.3z M33.3,145.6c9.2,3.3,18.4,1.5,20.9-3.8c-0.7,0.1-1.3,0.3-1.9,0.4c-1.7,0.3-3.4,0.8-5.1,1
		c-3.3,0.4-6.6,0.5-9.8,0.9C36,144.3,34.7,145.1,33.3,145.6z M80.2,136.1c-6-1.3-11.3-0.4-16.3,3.4
		C69.8,139.8,75.1,139.1,80.2,136.1z"/>
	<g>
		<g>
			<path class="st0" d="M128.6,158.4c-2.1-0.1-3.7-1.2-5.1-2.7c-2.4-2.5-3.6-2.6-6.1-0.3c-1,0.9-1.9,1.9-2.7,3
				c-3.7,4.5-8.2,4.9-12.6,1.1c-0.4-0.3-0.8-0.7-1.1-1.1c-3.1-2.9-5.4-3-8.7-0.4c-0.6,0.4-1.2,0.8-1.7,1.4c-2.6,3.1-5.9,2.6-9.2,1.7
				c-2.1-0.6-3.2-2.4-4-4.3c-0.1-0.3,0-0.9,0.2-1.1c0.3-0.2,0.9-0.2,1.3-0.1c0.3,0.1,0.6,0.5,0.7,0.8c0.9,2,2.4,2.7,4.5,3
				c2,0.3,3.3-0.3,4.8-1.5c1.8-1.5,3.8-3,5.9-3.8c2.7-1,5.2,0,7.3,2c0.8,0.8,1.6,1.6,2.5,2.3c2.6,2,5.4,1.7,7.7-0.9
				c1.4-1.5,2.7-3.2,4.3-4.4c3.1-2.5,5.6-2.2,8.3,0.7c3,3.2,6.3,2.9,8.6-0.9c0.4-0.7,0.8-1.5,1.3-2.1c0.3-0.3,1-0.5,1.3-0.3
				c0.3,0.1,0.6,0.8,0.6,1.2C136.1,155,131.9,158.4,128.6,158.4z"/>
			<path class="st0" d="M128.6,166c-2-0.3-4.3-0.4-6.3-2.1c-1.4-1.2-2.2-1-3.6,0.4c-1.2,1.2-2.3,2.6-3.7,3.4
				c-4.4,2.6-10.3,2-14.5-1.3c-3.6-2.8-4.7-2.7-8.3-0.1c-1.3,0.9-2.7,1.8-4.1,2.4c-0.9,0.3-2,0.1-3-0.1c-0.3,0-0.6-0.7-0.6-1.1
				c0.1-0.3,0.7-0.8,1-0.7c2,0.5,3.3-0.8,4.8-1.8c0.8-0.5,1.5-1.1,2.3-1.7c2.4-1.6,5.5-2.2,8.4,0.4c1.8,1.6,4,2.4,6.4,3
				c3.7,0.9,6.5-0.5,8.9-3.2c0.2-0.3,0.4-0.6,0.7-0.8c2.3-2.5,4.3-2.6,7.1-0.6c2.3,1.6,4.8,2.1,7.5,0.9c0.7-0.3,1.3-1,2-1.4
				c0.5-0.2,1.2-0.2,1.8-0.2c-0.1,0.6,0.1,1.4-0.2,1.8C134,164.8,131.1,166,128.6,166z"/>
		</g>
	</g>
	<g>
		<g>
			<path class="st0" d="M112.2,99.5C102,99.5,95.3,90,98.3,79.8c2.1-7.1,8.6-12.3,16-12.8c8.7-0.5,15.9,6.9,15.3,15.8
				c-0.5,8.2-6.5,14.9-14.5,16.4C114.1,99.5,113.2,99.5,112.2,99.5z M127.2,82c0.1-7.5-5.7-12.9-13.1-12.5
				c-8.2,0.5-14.7,8.2-14,16.5c0.6,6.8,6.5,11.7,13.2,11.2C120.9,96.6,127.2,89.8,127.2,82z"/>
			<path class="st0" d="M99.1,73c0.1,1.3-0.8,1.8-1.9,1.4c-1.3-0.5-2.6-1.2-4-1.8c-6-2.7-12-5.4-17.9-8.1c-0.2-0.1-0.5-0.2-0.7-0.3
				c-0.8-0.4-1.4-1-0.9-1.8c0.3-0.4,1.3-0.5,1.8-0.3c4.6,2,9.1,4,13.6,6.1c2.9,1.3,5.8,2.6,8.6,3.9C98.4,72.3,98.8,72.8,99.1,73z"/>
			<path class="st0" d="M152.4,107.6c-0.9,0.5-1.4,0.9-1.9,1c-0.4,0.1-0.9-0.3-1.2-0.5c-6.7-4-13.4-8.1-20.1-12.2
				c-0.8-0.5-1.7-1-1-2c0.7-1.1,1.5-0.4,2.3,0c6.6,4,13.3,8.1,19.9,12.1C151,106.3,151.5,106.8,152.4,107.6z"/>
			<path class="st0" d="M135.1,80.9c-0.3-0.2-0.8-0.7-1.3-1.1c0.5-0.5,0.9-1.2,1.4-1.3c7.3-1.3,14.6-2.5,21.8-3.7
				c0.8-0.1,1.7-0.1,1.8,1c0.1,1.1-0.8,1.3-1.6,1.4c-5.2,0.9-10.5,1.7-15.7,2.6C139.5,80.2,137.5,80.5,135.1,80.9z"/>
			<path class="st0" d="M115.6,103.5c0.2-0.2,0.7-1,1.1-0.9c0.5,0.1,1.2,0.7,1.3,1.2c0.9,4.6,1.7,9.2,2.5,13.7
				c0.5,2.7,0.9,5.4,1.4,8.1c0.1,0.8,0.2,1.6-0.8,1.9c-1,0.2-1.4-0.5-1.5-1.4c-1.3-7.2-2.5-14.4-3.8-21.6
				C115.6,104.3,115.6,104.1,115.6,103.5z"/>
			<path class="st0" d="M89,119.5c-1.4,0-1.8-1-1.1-2.1c0.8-1.3,1.6-2.5,2.4-3.8c2.9-4.6,5.9-9.1,8.8-13.7c0.2-0.3,0.4-0.8,0.7-1
				c0.5-0.3,1.1-0.4,1.6-0.5c0.1,0.6,0.5,1.3,0.3,1.7c-0.6,1.2-1.4,2.3-2.1,3.4c-3.2,4.9-6.3,9.8-9.5,14.7
				C89.7,118.8,89.2,119.2,89,119.5z"/>
			<path class="st0" d="M72.1,93.9c-0.2-0.2-0.7-0.6-1.1-1.1c0.5-0.4,0.9-1.2,1.4-1.3c6-1.1,12.1-2.1,18.2-3.1
				c0.8-0.1,1.7-0.4,2.4-0.3c0.5,0.1,1,0.6,1.5,0.9c-0.4,0.4-0.8,1.2-1.3,1.3c-2.6,0.5-5.2,0.9-7.8,1.3c-4,0.7-7.9,1.4-11.9,2
				C73.2,93.8,72.8,93.9,72.1,93.9z"/>
			<path class="st0" d="M111.6,64.1c-0.2,0.2-0.7,0.7-1.1,1.1c-0.5-0.5-1.2-0.9-1.3-1.4c-0.5-2.4-0.9-4.8-1.2-7.2
				c-0.7-4.3-1.4-8.6-2.1-12.8c-0.1-0.8-0.2-1.6,0.8-1.9c1-0.2,1.4,0.5,1.5,1.4c1.1,6.7,2.3,13.4,3.4,20.2
				C111.6,63.5,111.6,63.6,111.6,64.1z"/>
			<path class="st0" d="M127.6,69.8c-1,0-1.5-1-0.9-1.9c0.6-0.9,1.3-1.8,1.9-2.6c3.4-4.5,6.7-9,10.1-13.4c0.3-0.4,0.6-0.9,0.9-1
				c0.4-0.2,1-0.1,1.4,0.1c0.3,0.2,0.3,0.8,0.3,1.2c-0.1,0.4-0.4,0.7-0.6,1.1c-3.8,5.1-7.7,10.3-11.5,15.4c-0.4,0.5-0.6,1.2-0.9,1.8
				C128,70.2,127.8,70,127.6,69.8z"/>
			<path class="st0" d="M133,75.2c-0.3-0.2-0.8-0.4-0.9-0.7c-0.1-0.4,0-0.9,0.1-1.3c0.1-0.3,0.5-0.5,0.8-0.6
				c4.8-2.7,9.6-5.4,14.3-8.1c0,0,0.1,0,0.1-0.1c0.7-0.4,1.6-0.9,2.2,0.1c0.6,1-0.2,1.5-1,1.9c-1.7,1-3.4,1.9-5.1,2.9
				c-3.1,1.7-6.1,3.5-9.2,5.2C133.9,74.8,133.5,75,133,75.2z"/>
			<path class="st0" d="M133,85.9c4.3,0.9,8.3,1.7,12.2,2.5c1.4,0.3,2.8,0.4,4.1,0.9c0.6,0.2,0.9,1,1.4,1.5
				c-0.6,0.3-1.2,0.9-1.8,0.8c-5.3-1-10.6-2.1-15.8-3.3c-0.5-0.1-0.9-0.9-1.3-1.4C132.3,86.5,132.7,86.1,133,85.9z"/>
			<path class="st0" d="M93.2,53.8c0.5,0.4,0.9,0.7,1.2,1c3,3.9,6.1,7.9,9.1,11.8c0.5,0.7,1.1,1.5,0.1,2.1c-0.4,0.2-1.5-0.2-1.9-0.6
				c-3.1-3.9-6.2-7.9-9.2-11.9c-0.3-0.4-0.4-1.1-0.3-1.7C92.2,54.3,92.8,54.1,93.2,53.8z"/>
			<path class="st0" d="M81.7,105.6c-0.3-0.3-0.8-0.4-0.9-0.7c-0.1-0.3-0.1-0.8,0.1-1.1c0.2-0.3,0.6-0.6,0.9-0.8
				c4.1-2.7,8.3-5.5,12.4-8.2c0.7-0.5,1.5-0.8,2,0c0.5,0.8,0.1,1.4-0.6,1.9c-4.2,2.7-8.4,5.5-12.6,8.2
				C82.6,105.2,82.2,105.3,81.7,105.6z"/>
			<path class="st0" d="M133.4,114.2c-0.3,0.3-0.5,0.8-0.8,0.9c-0.4,0.1-1.1-0.1-1.3-0.4c-0.6-0.7-1-1.5-1.4-2.2
				c-2.1-3.5-4.2-7-6.2-10.5c-0.2-0.4-0.5-0.7-0.5-1.1c0-0.5,0.1-1.1,0.5-1.3c0.3-0.2,0.9,0,1.4,0.2c0.2,0.1,0.3,0.4,0.5,0.6
				c2.5,4.3,5,8.5,7.6,12.8C133.1,113.3,133.2,113.7,133.4,114.2z"/>
			<path class="st0" d="M118.9,64.6c0.4-1.5,0.6-2.6,0.9-3.8c0.9-3.7,1.8-7.4,2.7-11.2c0.2-0.8,0.5-1.7,1.6-1.5c1.1,0.3,1,1.2,0.8,2
				c-1.1,4.7-2.2,9.3-3.4,14c-0.1,0.5-0.8,1.1-1.4,1.3C119.8,65.6,119.3,64.9,118.9,64.6z"/>
			<path class="st0" d="M86.4,81.5c-2.6,0-5.2,0.1-7.7,0c-0.5,0-1.4-0.6-1.5-1c-0.2-1,0.7-1.2,1.6-1.2c5.1,0.1,10.2,0.2,15.3,0.4
				c0.5,0,0.9,0.8,1.4,1.2c-0.5,0.3-1,0.9-1.5,0.9c-2.5,0.1-5.1,0-7.6,0C86.4,81.7,86.4,81.6,86.4,81.5z"/>
			<path class="st0" d="M109.8,103.3c-0.4,1.7-0.8,3.2-1.1,4.6c-0.8,3.3-1.6,6.6-2.5,9.9c-0.2,0.8-0.5,1.8-1.6,1.5
				c-1.1-0.3-0.9-1.2-0.7-2.1c1.1-4.5,2.2-9,3.4-13.5c0.1-0.5,0.8-1.1,1.4-1.3C109,102.3,109.5,103,109.8,103.3z"/>
		</g>
	</g>
	<g>
		<g>
			<path class="st0" d="M175,244.6c-2.1-0.1-3.7-1.2-5.1-2.7c-2.4-2.5-3.6-2.6-6.1-0.3c-1,0.9-1.9,1.9-2.7,3
				c-3.7,4.5-8.2,4.9-12.6,1.1c-0.4-0.3-0.8-0.7-1.1-1.1c-3.1-2.9-5.4-3-8.7-0.4c-0.6,0.4-1.2,0.8-1.7,1.4c-2.6,3.1-5.9,2.6-9.2,1.7
				c-2.1-0.6-3.2-2.4-4-4.3c-0.1-0.3,0-0.9,0.2-1.1c0.3-0.2,0.9-0.2,1.3-0.1c0.3,0.1,0.6,0.5,0.7,0.8c0.9,2,2.4,2.7,4.5,3
				c2,0.3,3.3-0.3,4.8-1.5c1.8-1.5,3.8-3,5.9-3.8c2.7-1,5.2,0,7.3,2c0.8,0.8,1.6,1.6,2.5,2.3c2.6,2,5.4,1.7,7.7-0.9
				c1.4-1.5,2.7-3.2,4.3-4.4c3.1-2.5,5.6-2.2,8.3,0.7c3,3.2,6.3,2.9,8.6-0.9c0.4-0.7,0.8-1.5,1.3-2.1c0.3-0.3,1-0.5,1.3-0.3
				c0.3,0.1,0.6,0.8,0.6,1.2C182.6,241.1,178.3,244.6,175,244.6z"/>
			<path class="st0" d="M175,252.1c-2-0.3-4.3-0.4-6.3-2.1c-1.4-1.2-2.2-1-3.6,0.4c-1.2,1.2-2.3,2.6-3.7,3.4
				c-4.4,2.6-10.3,2-14.5-1.3c-3.6-2.8-4.7-2.7-8.3-0.1c-1.3,0.9-2.7,1.8-4.1,2.4c-0.9,0.3-2,0.1-3-0.1c-0.3,0-0.6-0.7-0.6-1.1
				c0.1-0.3,0.7-0.8,1-0.7c2,0.5,3.3-0.8,4.8-1.8c0.8-0.5,1.5-1.1,2.3-1.7c2.4-1.6,5.5-2.2,8.4,0.4c1.8,1.6,4,2.4,6.4,3
				c3.7,0.9,6.5-0.5,8.9-3.2c0.2-0.3,0.4-0.6,0.7-0.8c2.3-2.5,4.3-2.6,7.1-0.6c2.3,1.6,4.8,2.1,7.5,0.9c0.7-0.3,1.3-1,2-1.4
				c0.5-0.2,1.2-0.2,1.8-0.2c-0.1,0.6,0.1,1.4-0.2,1.8C180.4,250.9,177.5,252.1,175,252.1z"/>
		</g>
	</g>
	<g>
		<g>
			<path class="st0" d="M218.4,110.1c-2.1-0.1-3.7-1.2-5.1-2.7c-2.4-2.5-3.6-2.6-6.1-0.3c-1,0.9-1.9,1.9-2.7,3
				c-3.7,4.5-8.2,4.9-12.6,1.1c-0.4-0.3-0.8-0.7-1.1-1.1c-3.1-2.9-5.4-3-8.7-0.4c-0.6,0.4-1.2,0.8-1.7,1.4c-2.6,3.1-5.9,2.6-9.2,1.7
				c-2.1-0.6-3.2-2.4-4-4.3c-0.1-0.3,0-0.9,0.2-1.1c0.3-0.2,0.9-0.2,1.3-0.1c0.3,0.1,0.6,0.5,0.7,0.8c0.9,2,2.4,2.7,4.5,3
				c2,0.3,3.3-0.3,4.8-1.5c1.8-1.5,3.8-3,5.9-3.8c2.7-1,5.2,0,7.3,2c0.8,0.8,1.6,1.6,2.5,2.3c2.6,2,5.4,1.7,7.7-0.9
				c1.4-1.5,2.7-3.2,4.3-4.4c3.1-2.5,5.6-2.2,8.3,0.7c3,3.2,6.3,2.9,8.6-0.9c0.4-0.7,0.8-1.5,1.3-2.1c0.3-0.3,1-0.5,1.3-0.3
				c0.3,0.1,0.6,0.8,0.6,1.2C225.9,106.7,221.7,110.2,218.4,110.1z"/>
			<path class="st0" d="M218.4,117.7c-2-0.3-4.3-0.4-6.3-2.1c-1.4-1.2-2.2-1-3.6,0.4c-1.2,1.2-2.3,2.6-3.7,3.4
				c-4.4,2.6-10.3,2-14.5-1.3c-3.6-2.8-4.7-2.7-8.3-0.1c-1.3,0.9-2.7,1.8-4.1,2.4c-0.9,0.3-2,0.1-3-0.1c-0.3,0-0.6-0.7-0.6-1.1
				c0.1-0.3,0.7-0.8,1-0.7c2,0.5,3.3-0.8,4.8-1.8c0.8-0.5,1.5-1.1,2.3-1.7c2.4-1.6,5.5-2.2,8.4,0.4c1.8,1.6,4,2.4,6.4,3
				c3.7,0.9,6.5-0.5,8.9-3.2c0.2-0.3,0.4-0.6,0.7-0.8c2.3-2.5,4.3-2.6,7.1-0.6c2.3,1.6,4.8,2.1,7.5,0.9c0.7-0.3,1.3-1,2-1.4
				c0.5-0.2,1.2-0.2,1.8-0.2c-0.1,0.6,0.1,1.4-0.2,1.8C223.8,116.5,220.9,117.7,218.4,117.7z"/>
		</g>
	</g>
	<path class="st0" d="M229,252.6c10-2.2,16.3-12.3,13.8-21.9c-2.7-10.5-13.5-15.6-21.5-13.1c6.7,5.2,8.5,10.7,5.8,16.6
		c-1.3,2.9-3.4,5-6.2,6.5c-4,2.1-8.1,1.8-12.3,0C209.7,247.2,218.5,254.9,229,252.6z"/>
	<path class="st0" d="M203.2,241.8c0.1,2.8,0.2,5,0.4,7.2c0.1,1,0.4,1.9,0.7,2.8c0.8,2.1,2.3,3.2,4.6,2.9c0.2,0,0.4,0,0.6,0
		c0.8,0,1.5,0.2,1.5,1.1c0,1-0.8,1.3-1.6,1.2c-1.6-0.3-2.8,0.5-4,1.4c-1.7,1.3-2.4,3.1-2.7,5.1c-0.1,1.2-0.1,2.3-0.3,3.5
		c-0.1,0.4-0.5,0.8-0.8,1.2c-0.4-0.3-1-0.6-1.2-1c-0.2-0.5-0.1-1.1-0.2-1.7c-0.6-3.4-2-7.2-6.5-7.6c-0.4,0-0.9-0.1-1.2-0.4
		c-0.3-0.3-0.5-0.8-0.4-1.2c0-0.2,0.7-0.6,1-0.5c2.6,0.6,4.1-0.7,5.5-2.6c2.3-3,2.6-6.5,2.6-10.1c0-0.2-0.1-0.4,0-0.6
		c0.3-0.6,0.6-1.1,0.9-1.6C202.6,241.2,203.1,241.7,203.2,241.8z M201.1,260.6c1.2-1.5,2.5-3.1,3.6-4.6c-0.9-1.4-1.9-2.9-2.8-4.3
		c-1.3,1.6-2.6,3.4-3.9,5.1C198.9,258.1,200,259.4,201.1,260.6z"/>
	<path class="st0" d="M38.7,166.4c-0.1,0.7-0.2,1.4-0.1,2c0.1,1.7,0.6,3.6,1.1,5.3c1,3.6,3.2,5,6.8,4.8c0.3,0,0.7-0.1,1,0
		c0.4,0.2,1,0.6,1,0.8c-0.1,0.4-0.5,1.1-0.8,1.1c-2.8,0.2-4.7,1.5-6,4c-1.2,2.3-1.6,4.8-1.4,7.3c0.1,1.1,0.2,2.2,0,3.2
		c-0.1,0.6-0.7,1.5-1.1,1.5c-1,0.1-1.2-0.9-1.1-1.7c0.3-3-0.3-5.8-1.3-8.5c-0.9-2.5-2.3-3.4-5-3c-0.8,0.1-1.6,0.3-2.3,0.2
		c-0.5-0.1-1-0.5-1.5-0.8c0.3-0.4,0.6-1.1,1-1.2c4.9-1.6,6.3-5.6,7-10c0.4-2.6,0.4-5.2,0.6-7.8c0.1-2,1.2-1.6,1.9-0.2
		C38.8,164.4,38.8,165.4,38.7,166.4z M37.7,174.6c-1,2.3-2,4.6-3,6.9c2,0.7,3.4,2.2,3.9,4.3c1.2-2,2.4-3.9,3.7-5.9
		C39.9,179.1,38.7,177,37.7,174.6z"/>
	<path class="st0" d="M182.3,61.3c0.1,2.8,0.2,5,0.4,7.2c0.1,1,0.4,1.9,0.7,2.8c0.8,2.1,2.3,3.2,4.6,2.9c0.2,0,0.4,0,0.6,0
		c0.8,0,1.5,0.2,1.5,1.1c0,1-0.8,1.3-1.6,1.2c-1.6-0.3-2.8,0.5-4,1.4c-1.7,1.3-2.4,3.1-2.7,5.1c-0.1,1.2-0.1,2.3-0.3,3.5
		c-0.1,0.4-0.5,0.8-0.8,1.2c-0.4-0.3-1-0.6-1.2-1c-0.2-0.5-0.1-1.1-0.2-1.7c-0.6-3.4-2-7.2-6.5-7.6c-0.4,0-0.9-0.1-1.2-0.4
		c-0.3-0.3-0.5-0.8-0.4-1.2c0-0.2,0.7-0.6,1-0.5c2.6,0.6,4.1-0.7,5.5-2.6c2.3-3,2.6-6.5,2.6-10.1c0-0.2-0.1-0.4,0-0.6
		c0.3-0.6,0.6-1.1,0.9-1.6C181.7,60.7,182.1,61.1,182.3,61.3z M180.1,80.1c1.2-1.5,2.5-3.1,3.6-4.6c-0.9-1.4-1.9-2.9-2.8-4.3
		c-1.3,1.6-2.6,3.4-3.9,5.1C178,77.5,179.1,78.8,180.1,80.1z"/>
	<path class="st0" d="M249.5,174.6c0.1,2.8,0.2,5,0.4,7.2c0.1,1,0.4,1.9,0.7,2.8c0.8,2.1,2.3,3.2,4.6,2.9c0.2,0,0.4,0,0.6,0
		c0.8,0,1.5,0.2,1.5,1.1c0,1-0.8,1.3-1.6,1.2c-1.6-0.3-2.8,0.5-4,1.4c-1.7,1.3-2.4,3.1-2.7,5.1c-0.1,1.2-0.1,2.3-0.3,3.5
		c-0.1,0.4-0.5,0.8-0.8,1.2c-0.4-0.3-1-0.6-1.2-1c-0.2-0.5-0.1-1.1-0.2-1.7c-0.6-3.4-2-7.2-6.5-7.6c-0.4,0-0.9-0.1-1.2-0.4
		c-0.3-0.3-0.5-0.8-0.4-1.2c0-0.2,0.7-0.6,1-0.5c2.6,0.6,4.1-0.7,5.5-2.6c2.3-3,2.6-6.5,2.6-10.1c0-0.2-0.1-0.4,0-0.6
		c0.3-0.6,0.6-1.1,0.9-1.6C248.8,174,249.3,174.4,249.5,174.6z M247.3,193.4c1.2-1.5,2.5-3.1,3.6-4.6c-0.9-1.4-1.9-2.9-2.8-4.3
		c-1.3,1.6-2.6,3.4-3.9,5.1C245.2,190.8,246.3,192.1,247.3,193.4z"/>
	<path class="st0" d="M52.3,66.4c-0.1,0.7-0.2,1.4-0.1,2c0.1,1.7,0.6,3.6,1.1,5.3c1,3.6,3.2,5,6.8,4.8c0.3,0,0.7-0.1,1,0
		c0.4,0.2,1,0.6,1,0.8c-0.1,0.4-0.5,1.1-0.8,1.1c-2.8,0.2-4.7,1.5-6,4c-1.2,2.3-1.6,4.8-1.4,7.3c0.1,1.1,0.2,2.2,0,3.2
		c-0.1,0.6-0.7,1.5-1.1,1.5c-1,0.1-1.2-0.9-1.1-1.7c0.3-3-0.3-5.8-1.3-8.5c-0.9-2.5-2.3-3.4-5-3c-0.8,0.1-1.6,0.3-2.3,0.2
		c-0.5-0.1-1-0.5-1.5-0.8c0.3-0.4,0.6-1.1,1-1.2c4.9-1.6,6.3-5.6,7-10c0.4-2.6,0.4-5.2,0.6-7.8c0.1-2,1.2-1.6,1.9-0.2
		C52.4,64.3,52.4,65.4,52.3,66.4z"/>
	<path class="st0" d="M135.1,201.5c-0.1,0.7-0.2,1.4-0.1,2c0.1,1.7,0.6,3.6,1.1,5.3c1,3.6,3.2,5,6.8,4.8c0.3,0,0.7-0.1,1,0
		c0.4,0.2,1,0.6,1,0.8c-0.1,0.4-0.5,1.1-0.8,1.1c-2.8,0.2-4.7,1.5-6,4c-1.2,2.3-1.6,4.8-1.4,7.3c0.1,1.1,0.2,2.2,0,3.2
		c-0.1,0.6-0.7,1.5-1.1,1.5c-1,0.1-1.2-0.9-1.1-1.7c0.3-3-0.3-5.8-1.3-8.5c-0.9-2.5-2.3-3.4-5-3c-0.8,0.1-1.6,0.3-2.3,0.2
		c-0.5-0.1-1-0.5-1.5-0.8c0.3-0.4,0.6-1.1,1-1.2c4.9-1.6,6.3-5.6,7-10c0.4-2.6,0.4-5.2,0.6-7.8c0.1-2,1.2-1.6,1.9-0.2
		C135.2,199.5,135.2,200.5,135.1,201.5z"/>
	<path class="st0" d="M241.3,113.2c-0.1,0.7-0.2,1.4-0.1,2c0.1,1.7,0.6,3.6,1.1,5.3c1,3.6,3.2,5,6.8,4.8c0.3,0,0.7-0.1,1,0
		c0.4,0.2,1,0.6,1,0.8c-0.1,0.4-0.5,1.1-0.8,1.1c-2.8,0.2-4.7,1.5-6,4c-1.2,2.3-1.6,4.8-1.4,7.3c0.1,1.1,0.2,2.2,0,3.2
		c-0.1,0.6-0.7,1.5-1.1,1.5c-1,0.1-1.2-0.9-1.1-1.7c0.3-3-0.3-5.8-1.3-8.5c-0.9-2.5-2.3-3.4-5-3c-0.8,0.1-1.6,0.3-2.3,0.2
		c-0.5-0.1-1-0.5-1.5-0.8c0.3-0.4,0.6-1.1,1-1.2c4.9-1.6,6.3-5.6,7-10c0.4-2.6,0.4-5.2,0.6-7.8c0.1-2,1.2-1.6,1.9-0.2
		C241.5,111.2,241.4,112.2,241.3,113.2z"/>
</g>
</svg>
